<?xml version="1.0" encoding="UTF-8"?>
<mxfile host="app.diagrams.net">
  <diagram name="Sequence Diagram">
    <mxGraphModel dx="707" dy="484" grid="1" gridSize="10" guides="1" tooltips="1" connect="1" arrows="1" fold="1" page="1" pageScale="1" pageWidth="827" pageHeight="1169" math="0" shadow="0">
      <root>
        <mxCell id="0" />
        <mxCell id="1" parent="0" />
        <mxCell id="2" value="User" style="shape=actor;verticalLabelPosition=bottom;verticalAlign=top;html=1;" vertex="1" parent="1">
          <mxGeometry x="40" y="80" width="30" height="80" as="geometry" />
        </mxCell>
        <mxCell id="3" value="DedÃ©-UI" style="rounded=0;whiteSpace=wrap;html=1;" vertex="1" parent="1">
          <mxGeometry x="140" y="80" width="100" height="50" as="geometry" />
        </mxCell>
        <mxCell id="4" value="GitLab Integration" style="rounded=0;whiteSpace=wrap;html=1;" vertex="1" parent="1">
          <mxGeometry x="300" y="80" width="120" height="50" as="geometry" />
        </mxCell>
        <mxCell id="5" value="Pinot Integration" style="rounded=0;whiteSpace=wrap;html=1;" vertex="1" parent="1">
          <mxGeometry x="480" y="80" width="120" height="50" as="geometry" />
        </mxCell>
        <mxCell id="6" value="" style="edgeStyle=orthogonalEdgeStyle;rounded=0;orthogonalLoop=1;jettySize=auto;orthogonalLoop=1;html=1;" edge="1" parent="1" source="2" target="3">
          <mxGeometry relative="1" as="geometry" />
        </mxCell>
        <mxCell id="7" value="Click Approve" style="rounded=0;whiteSpace=wrap;html=1;" vertex="1" parent="6">
          <mxGeometry x="0.5" y="-1" width="80" height="30" as="geometry" />
        </mxCell>
        <mxCell id="8" value="" style="edgeStyle=orthogonalEdgeStyle;rounded=0;orthogonalLoop=1;jettySize=auto;orthogonalLoop=1;html=1;" edge="1" parent="1" source="3" target="4">
          <mxGeometry relative="1" as="geometry" />
        </mxCell>
        <mxCell id="9" value="Create Branch" style="rounded=0;whiteSpace=wrap;html=1;" vertex="1" parent="8">
          <mxGeometry x="0.5" y="-1" width="100" height="30" as="geometry" />
        </mxCell>
        <mxCell id="10" value="" style="edgeStyle=orthogonalEdgeStyle;rounded=0;orthogonalLoop=1;jettySize=auto;orthogonalLoop=1;html=1;" edge="1" parent="1" source="4" target="5">
          <mxGeometry relative="1" as="geometry" />
        </mxCell>
        <mxCell id="11" value="Generate JSON" style="rounded=0;whiteSpace=wrap;html=1;" vertex="1" parent="10">
          <mxGeometry x="0.5" y="-1" width="100" height="30" as="geometry" />
        </mxCell>
        <mxCell id="12" value="" style="edgeStyle=orthogonalEdgeStyle;rounded=0;orthogonalLoop=1;jettySize=auto;orthogonalLoop=1;html=1;" edge="1" parent="1" source="5" target="3">
          <mxGeometry relative="1" as="geometry" />
        </mxCell>
        <mxCell id="13" value="Execute Pinot Integration" style="rounded=0;whiteSpace=wrap;html=1;" vertex="1" parent="12">
          <mxGeometry x="0.5" y="-1" width="160" height="30" as="geometry" />
        </mxCell>
        <mxCell id="14" value="" style="edgeStyle=orthogonalEdgeStyle;rounded=0;orthogonalLoop=1;jettySize=auto;orthogonalLoop=1;html=1;" edge="1" parent="1" source="3" target="4">
          <mxGeometry relative="1" as="geometry" />
        </mxCell>
        <mxCell id="15" value="Create Merge Request" style="rounded=0;whiteSpace=wrap;html=1;" vertex="1" parent="14">
          <mxGeometry x="0.5" y="-1" width="120" height="30" as="geometry" />
        </mxCell>
        <mxCell id="16" value="" style="edgeStyle=orthogonalEdgeStyle;rounded=0;orthogonalLoop=1;jettySize=auto;orthogonalLoop=1;html=1;" edge="1" parent="1" source="4" target="3">
          <mxGeometry relative="1" as="geometry" />
        </mxCell>
        <mxCell id="17" value="Merge Request Created" style="rounded=0;whiteSpace=wrap;html=1;" vertex="1" parent="16">
          <mxGeometry x="0.5" y="-1" width="140" height="30" as="geometry" />
        </mxCell>
        <mxCell id="18" value="" style="edgeStyle=orthogonalEdgeStyle;rounded=0;orthogonalLoop=1;jettySize=auto;orthogonalLoop=1;html=1;" edge="1" parent="1" source="3" target="2">
          <mxGeometry relative="1" as="geometry" />
        </mxCell>
        <mxCell id="19" value="Notify User" style="rounded=0;whiteSpace=wrap;html=1;" vertex="1" parent="18">
          <mxGeometry x="0.5" y="-1" width="80" height="30" as="geometry" />
        </mxCell>
      </root>
    </mxGraphModel>
  </diagram>
</mxfile>
